# ProBuilder 4.2.3
# https://unity3d.com/unity/features/worldbuilding/probuilder
# 1-2-2020 09:15:45

mtllib ./Torso.mtl
o Torso

g Torso
v 0 0 0
v -0.25 0 0
v -0.25 0.25 -0.2475343
v 0 0.25 0
v -0.5 0 0
v -0.5 0.25 -0.2475343
v -0.5 0.5 -0.3407669
v -0.25 0.5 -0.2475343
v 0 0.5 0
v -0.75 0 0
v -0.75 0.25 -0.2475343
v -1 0 0
v -1 0.25 0
v -1 0.5 0
v -0.75 0.5 -0.2475343
v -0.75 0.75 -0.2475343
v -0.5 0.75 -0.2475343
v -1 0.75 0
v -1 1 0
v -0.75 1 0
v -0.5 1 0
v -0.25 0.75 -0.2475343
v 0 0.75 0
v -0.25 1 0
v 0 1 0
v -1 0 -0.25
v -0.756117 0.25 -0.25
v -1 0 -0.5
v -0.756117 0.25 -0.5
v -0.6221961 0.5 -0.5
v -0.756117 0.5 -0.25
v -1 0 -0.75
v -0.756117 0.25 -0.75
v -1 0 -1
v -1 0.25 -1
v -1 0.5 -1
v -0.756117 0.5 -0.75
v -0.756117 0.75 -0.75
v -0.756117 0.75 -0.5
v -1 0.75 -1
v -1 1 -1
v -1 1 -0.75
v -1 1 -0.5
v -0.756117 0.75 -0.25
v -1 1 -0.25
v -0.5 0 -1
v -0.5 0.25 -0.743417
v -0.75 0.25 -0.743417
v -0.75 0 -1
v -0.5 0.5 -0.6027567
v -0.75 0.5 -0.743417
v 0 0 -1
v 0 0.25 -1
v -0.25 0.25 -0.743417
v -0.25 0 -1
v 0 0.5 -1
v -0.25 0.5 -0.743417
v 0 0.75 -1
v -0.25 0.75 -0.743417
v 0 1 -1
v -0.25 1 -1
v -0.5 1 -1
v -0.5 0.75 -0.743417
v -0.75 0.75 -0.743417
v -0.75 1 -1
v 0 0 -0.5
v -0.2435785 0.25 -0.5
v -0.2435785 0.25 -0.75
v 0 0 -0.75
v -0.3886219 0.5 -0.5
v -0.2435785 0.5 -0.75
v -0.2435785 0.25 -0.25
v 0 0 -0.25
v -0.2435785 0.5 -0.25
v -0.2435785 0.75 -0.25
v 0 1 -0.25
v 0 1 -0.5
v -0.2435785 0.75 -0.5
v -0.2435785 0.75 -0.75
v 0 1 -0.75
v -0.5 1 -0.5
v -0.25 1 -0.5
v -0.25 1 -0.25
v -0.5 1 -0.25
v -0.75 1 -0.5
v -0.75 1 -0.25
v -0.75 1 -0.75
v -0.5 1 -0.75
v -0.25 1 -0.75
v -0.5 0 -0.75
v -0.25 0 -0.75
v -0.5 0 -0.5
v -0.25 0 -0.5
v -0.75 0 -0.75
v -0.75 0 -0.5
v -0.75 0 -0.25
v -0.5 0 -0.25
v -0.25 0 -0.25

vt 0 0
vt -0.2499824 3.521132E-05
vt -0.2470446 0.252955
vt 0 0.2499824
vt -0.4999648 7.042264E-05
vt -0.497027 0.2529902
vt -0.4959205 0.504079
vt -0.2470446 0.5029374
vt 0 0.4999648
vt -0.7499472 0.000105634
vt -0.7470094 0.2530254
vt -0.9999296 0.0001408453
vt -0.9999296 0.2501232
vt -0.9999296 0.5001056
vt -0.7470094 0.5030078
vt -0.7470094 0.7529902
vt -0.497027 0.752955
vt -0.9999296 0.750088
vt -0.9999296 1.00007
vt -0.7499472 1.000035
vt -0.4999648 1
vt -0.2470446 0.7529198
vt 0 0.7499472
vt -0.2499824 0.9999648
vt 0 0.9999296
vt -0.01389389 -0.0138912
vt -0.2638698 -0.01384294
vt -0.2604813 0.2395208
vt -0.01389389 0.2360847
vt -0.5138456 -0.01379469
vt -0.5104571 0.239569
vt -0.5085964 0.4914052
vt -0.2604813 0.4894966
vt -0.01389389 0.4860606
vt -0.7638215 -0.01374643
vt -0.760433 0.2396173
vt -1.013797 -0.01369818
vt -1.013797 0.2362777
vt -1.013797 0.4862536
vt -0.760433 0.4895931
vt -0.760433 0.739569
vt -0.5104571 0.7395208
vt -1.013797 0.7362294
vt -1.013797 0.9862053
vt -0.7638215 0.9861571
vt -0.5138456 0.9861088
vt -0.2604813 0.7394725
vt -0.01389389 0.7360364
vt -0.2638698 0.9860606
vt -0.01389389 0.9860123
vt 0.4846986 0.01535592
vt 0.4886098 0.2614166
vt 0.7385808 0.2614747
vt 0.7346696 0.01541401
vt 0.4907539 0.509244
vt 0.7385808 0.5114456
vt 0.9846405 0.515414
vt 0.9846405 0.2654431
vt 0.9846405 0.01547209
vt -0.0152433 0.01523976
vt -0.0152433 0.2652107
vt 0.2386388 0.2613585
vt 0.2347277 0.01529784
vt -0.0152433 0.5151817
vt 0.2386388 0.5113295
vt -0.0152433 0.7651526
vt 0.2386388 0.7613004
vt -0.0152433 1.015124
vt 0.2347277 1.015182
vt 0.4846986 1.01524
vt 0.4886098 0.7613586
vt 0.7385808 0.7614166
vt 0.7346696 1.015298
vt 0.9846405 1.015356
vt 0.9846405 0.765385
vt 0.4999467 0.0001065314
vt 0.5035024 0.246525
vt 0.7534757 0.2465783
vt 0.7499201 0.0001597972
vt 0.5056196 0.4943816
vt 0.7534757 0.4965517
vt 0.9998935 0.5001599
vt 0.9998935 0.2501864
vt 0.9998935 0.0002130629
vt 0.253529 0.2464718
vt 0.2499734 5.326572E-05
vt 0.253529 0.4964452
vt 0.253529 0.7464185
vt 0.2499734 0.9999468
vt 0.4999467 1
vt 0.5035024 0.7464718
vt 0.7534757 0.7465251
vt 0.7499201 1.000053
vt 0.9998935 1.000107
vt 0.9998935 0.7501332
vt 0.5 -0.5
vt 0.25 -0.5
vt 0.25 -0.25
vt 0.5 -0.25
vt 0 -0.5
vt 0 -0.25
vt 0.25 0
vt 0.5 0
vt 1 -0.5
vt 0.75 -0.5
vt 0.75 -0.25
vt 1 -0.25
vt 0.75 0
vt 1 0
vt 1 -1
vt 0.75 -1
vt 0.75 -0.75
vt 1 -0.75
vt 0.5 -1
vt 0.5 -0.75
vt 0.25 -1
vt 0.25 -0.75
vt 0 -1
vt 0 -0.75
vt -0.5 -1
vt -0.5 -0.75
vt -0.25 -0.75
vt -0.25 -1
vt -0.5 -0.5
vt -0.25 -0.5
vt -1 -1
vt -1 -0.75
vt -0.75 -0.75
vt -0.75 -1
vt -1 -0.5
vt -0.75 -0.5
vt -1 -0.25
vt -0.75 -0.25
vt -1 0
vt -0.75 0
vt -0.5 0
vt -0.5 -0.25
vt -0.25 -0.25
vt -0.25 0

vn -0.3517969 0.3517969 0.7106024
vn 0 0.7035938 0.7106024
vn -0.7035938 0 0.7106024
vn 0 0.3494229 0.9369651
vn -0.1747115 0.1747115 0.9369651
vn -0.3494229 0 0.9369651
vn 0.2877167 0.2877167 0.7905827
vn 0 0 1
vn 0.5754333 0.5754333 0.5811653
vn 0.7035938 0 0.7106024
vn 0.1649325 0.1649325 0.9422607
vn 0.3298651 0.3298651 0.8845214
vn 0.1747115 -0.1747115 0.9369651
vn 0.3494229 0 0.9369651
vn 0 -0.3494229 0.9369651
vn 0.3517969 -0.3517969 0.7106024
vn 0 -0.7035938 0.7106024
vn -0.1649325 -0.1649325 0.9422607
vn -0.3298651 -0.3298651 0.8845214
vn -0.2877167 -0.2877167 0.7905827
vn -0.5754333 -0.5754333 0.5811653
vn -0.7158098 0.3491477 -0.3491477
vn -0.7158098 0.6982954 0
vn -0.7158098 0 -0.6982954
vn -0.8814913 0.4722002 0
vn -0.8814913 0.2361001 -0.2361001
vn -0.8814913 0 -0.4722002
vn -0.7934419 0.286262 0.286262
vn -1 0 0
vn -0.5868838 0.572524 0.572524
vn -0.7158098 0 0.6982954
vn -0.8985471 0.213495 0.213495
vn -0.7970941 0.4269901 0.4269901
vn -0.8814913 -0.2361001 0.2361001
vn -0.8814913 0 0.4722002
vn -0.8814913 -0.4722002 0
vn -0.7158098 -0.3491477 0.3491477
vn -0.7158098 -0.6982954 0
vn -0.8985471 -0.213495 -0.213495
vn -0.7970941 -0.4269901 -0.4269901
vn -0.7934419 -0.286262 -0.286262
vn -0.5868838 -0.572524 -0.572524
vn 0 0.7162352 -0.697859
vn 0.220136 0.220136 -0.8912548
vn 0.4402719 0.4402719 -0.7825096
vn 0 0 -1
vn 0.7162352 0 -0.697859
vn 0.2911436 0.2911436 -0.7836738
vn 0.5822871 0.5822871 -0.5673476
vn -0.3581176 0.3581176 -0.697859
vn -0.7162352 0 -0.697859
vn -0.4903545 0 -0.8715231
vn -0.2451773 0.2451773 -0.8715231
vn 0 0.4903545 -0.8715231
vn -0.2911436 -0.2911436 -0.7836738
vn -0.5822871 -0.5822871 -0.5673476
vn 0 -0.7162352 -0.697859
vn -0.220136 -0.220136 -0.8912548
vn -0.4402719 -0.4402719 -0.7825096
vn 0.2451773 -0.2451773 -0.8715231
vn 0 -0.4903545 -0.8715231
vn 0.4903545 0 -0.8715231
vn 0.3581176 -0.3581176 -0.697859
vn 0.7162458 0.6978481 0
vn 0.8865411 0.224261 0.224261
vn 0.7730821 0.4485221 0.4485221
vn 1 0 0
vn 0.7162458 0 0.6978481
vn 0.7936823 0.2861387 0.2861387
vn 0.5873646 0.5722774 0.5722774
vn 0.7162458 0.3489241 -0.3489241
vn 0.8649659 0 -0.5018306
vn 0.8649659 0.2509153 -0.2509153
vn 0.8649659 0.5018306 0
vn 0.7936823 -0.2861387 -0.2861387
vn 0.5873646 -0.5722774 -0.5722774
vn 0.7162458 -0.6978481 0
vn 0.8865411 -0.224261 -0.224261
vn 0.7730821 -0.4485221 -0.4485221
vn 0.8649659 -0.2509153 0.2509153
vn 0.8649659 -0.5018306 0
vn 0.8649659 0 0.5018306
vn 0.7162458 -0.3489241 0.3489241
vn 0 1 0
vn 0 -1 0

usemtl Lit
f 4/4/3 3/3/1 2/2/2 1/1/1
f 3/3/2 6/6/2 5/5/2 2/2/2
f 8/8/6 7/7/5 6/6/4 3/3/5
f 9/9/3 8/8/3 3/3/3 4/4/3
f 6/6/2 11/11/2 10/10/2 5/5/2
f 11/11/9 13/13/7 12/12/8 10/10/7
f 15/15/10 14/14/10 13/13/10 11/11/10
f 7/7/12 15/15/11 11/11/8 6/6/11
f 17/17/15 16/16/13 15/15/14 7/7/13
f 16/16/10 18/18/10 14/14/10 15/15/10
f 20/20/17 19/19/16 18/18/10 16/16/16
f 21/21/17 20/20/17 16/16/17 17/17/17
f 23/23/3 22/22/3 8/8/3 9/9/3
f 22/22/8 17/17/18 7/7/19 8/8/18
f 24/24/17 21/21/17 17/17/17 22/22/17
f 25/25/8 24/24/20 22/22/21 23/23/20
f 13/29/24 27/28/22 26/27/23 12/26/22
f 27/28/23 29/31/23 28/30/23 26/27/23
f 31/33/27 30/32/26 29/31/25 27/28/26
f 14/34/24 31/33/24 27/28/24 13/29/24
f 29/31/23 33/36/23 32/35/23 28/30/23
f 33/36/30 35/38/28 34/37/29 32/35/28
f 37/40/31 36/39/31 35/38/31 33/36/31
f 30/32/33 37/40/32 33/36/29 29/31/32
f 39/42/36 38/41/34 37/40/35 30/32/34
f 38/41/31 40/43/31 36/39/31 37/40/31
f 42/45/38 41/44/37 40/43/31 38/41/37
f 43/46/38 42/45/38 38/41/38 39/42/38
f 18/48/24 44/47/24 31/33/24 14/34/24
f 44/47/29 39/42/39 30/32/40 31/33/39
f 45/49/38 43/46/38 39/42/38 44/47/38
f 19/50/29 45/49/41 44/47/42 18/48/41
f 49/54/43 48/53/43 47/52/43 46/51/43
f 48/53/46 51/56/44 50/55/45 47/52/44
f 35/58/47 36/57/47 51/56/47 48/53/47
f 34/59/46 35/58/48 48/53/49 49/54/48
f 55/63/43 54/62/50 53/61/51 52/60/50
f 54/62/51 57/65/51 56/64/51 53/61/51
f 47/52/54 50/55/53 57/65/52 54/62/53
f 46/51/43 47/52/43 54/62/43 55/63/43
f 57/65/51 59/67/51 58/66/51 56/64/51
f 59/67/56 61/69/55 60/68/46 58/66/55
f 63/71/57 62/70/57 61/69/57 59/67/57
f 50/55/59 63/71/58 59/67/46 57/65/58
f 51/56/62 64/72/60 63/71/61 50/55/60
f 64/72/57 65/73/57 62/70/57 63/71/57
f 40/75/47 41/74/63 65/73/57 64/72/63
f 36/57/47 40/75/47 64/72/47 51/56/47
f 69/79/64 68/78/64 67/77/64 66/76/64
f 68/78/67 71/81/65 70/80/66 67/77/65
f 53/83/68 56/82/68 71/81/68 68/78/68
f 52/84/67 53/83/69 68/78/70 69/79/69
f 73/86/64 72/85/71 4/4/47 1/1/71
f 72/85/47 74/87/47 9/9/47 4/4/47
f 67/77/74 70/80/73 74/87/72 72/85/73
f 66/76/64 67/77/64 72/85/64 73/86/64
f 74/87/47 75/88/47 23/23/47 9/9/47
f 75/88/76 76/89/75 25/25/67 23/23/75
f 78/91/77 77/90/77 76/89/77 75/88/77
f 70/80/79 78/91/78 75/88/67 74/87/78
f 71/81/82 79/92/80 78/91/81 70/80/80
f 79/92/77 80/93/77 77/90/77 78/91/77
f 58/95/68 60/94/83 80/93/77 79/92/83
f 56/82/68 58/95/68 79/92/68 71/81/68
f 84/99/84 83/98/84 82/97/84 81/96/84
f 83/98/84 76/101/84 77/100/84 82/97/84
f 24/102/84 25/1/84 76/101/84 83/98/84
f 21/103/84 24/102/84 83/98/84 84/99/84
f 45/107/84 86/106/84 85/105/84 43/104/84
f 86/106/84 84/99/84 81/96/84 85/105/84
f 20/108/84 21/103/84 84/99/84 86/106/84
f 19/109/84 20/108/84 86/106/84 45/107/84
f 42/113/84 87/112/84 65/111/84 41/110/84
f 87/112/84 88/115/84 62/114/84 65/111/84
f 85/105/84 81/96/84 88/115/84 87/112/84
f 43/104/84 85/105/84 87/112/84 42/113/84
f 88/115/84 89/117/84 61/116/84 62/114/84
f 89/117/84 80/119/84 60/118/84 61/116/84
f 82/97/84 77/100/84 80/119/84 89/117/84
f 81/96/84 82/97/84 89/117/84 88/115/84
f 55/123/85 91/122/85 90/121/85 46/120/85
f 91/122/85 93/125/85 92/124/85 90/121/85
f 69/119/85 66/100/85 93/125/85 91/122/85
f 52/118/85 69/119/85 91/122/85 55/123/85
f 49/129/85 94/128/85 32/127/85 34/126/85
f 94/128/85 95/131/85 28/130/85 32/127/85
f 90/121/85 92/124/85 95/131/85 94/128/85
f 46/120/85 90/121/85 94/128/85 49/129/85
f 95/131/85 96/133/85 26/132/85 28/130/85
f 96/133/85 10/135/85 12/134/85 26/132/85
f 97/137/85 5/136/85 10/135/85 96/133/85
f 92/124/85 97/137/85 96/133/85 95/131/85
f 93/125/85 98/138/85 97/137/85 92/124/85
f 98/138/85 2/139/85 5/136/85 97/137/85
f 73/101/85 1/1/85 2/139/85 98/138/85
f 66/100/85 73/101/85 98/138/85 93/125/85

